<svg width="50" height="50" viewBox="0 0 50 50" fill="none" xmlns="http://www.w3.org/2000/svg">
<rect width="50" height="50" fill="url(#paint0_radial_157_741)"/>
<path d="M25.0001 23.0957V29.4157C25.0011 30.0013 24.8835 30.5809 24.6544 31.1198C24.4253 31.6586 24.0895 32.1455 23.6672 32.551C23.2448 32.9566 22.7448 33.2724 22.1971 33.4795C21.6494 33.6866 21.0655 33.7807 20.4805 33.756C19.8955 33.7314 19.3215 33.5885 18.7932 33.336C18.2649 33.0836 17.7932 32.7268 17.4065 32.2871C17.0198 31.8474 16.7262 31.334 16.5432 30.7778C16.3603 30.2216 16.2919 29.6341 16.3421 29.0507C15.4391 28.0837 14.8691 26.1857 14.8691 24.6037C14.8691 22.4477 15.9281 20.3517 17.4431 19.5267C17.3613 18.7739 17.5069 18.0138 17.8611 17.3445C18.2154 16.6752 18.7621 16.1275 19.4307 15.7719C20.0993 15.4163 20.8591 15.2692 21.612 15.3495C22.365 15.4299 23.0767 15.734 23.6551 16.2227" stroke="white" stroke-width="1.714" stroke-linecap="round" stroke-linejoin="round"/>
<path d="M19.4449 22.1012C18.8879 21.9742 17.6289 21.1462 17.4389 19.5352M17.5019 26.7772C16.9349 27.2252 16.4819 28.2372 16.3379 29.0492M24.9999 29.4152C24.9989 30.0007 25.1165 30.5803 25.3456 31.1192C25.5747 31.658 25.9105 32.1449 26.3329 32.5505C26.7552 32.956 27.2553 33.2719 27.8029 33.479C28.3506 33.686 28.9346 33.7801 29.5196 33.7554C30.1046 33.7308 30.6785 33.5879 31.2068 33.3355C31.7351 33.083 32.2068 32.7262 32.5935 32.2865C32.9802 31.8469 33.2739 31.3334 33.4568 30.7772C33.6397 30.221 33.7081 29.6335 33.6579 29.0502C34.5609 28.0802 35.1279 26.1852 35.1279 24.6032C35.1279 23.9122 35.0209 23.2272 34.8229 22.5892" stroke="white" stroke-width="1.714" stroke-linecap="round" stroke-linejoin="round"/>
<path d="M32.4979 26.779C33.0649 27.227 33.5169 28.239 33.6619 29.051M25.1189 19.714C24.5619 19.615 24.5619 18.814 25.1189 18.717C26.1084 18.5449 27.0242 18.0821 27.7496 17.3875C28.475 16.693 28.9771 15.7981 29.1919 14.817L29.2239 14.663C29.3469 14.11 30.1319 14.106 30.2589 14.658L30.2989 14.838C30.5219 15.8148 31.0287 16.7039 31.7555 17.3935C32.4823 18.0831 33.3968 18.5425 34.3839 18.714C34.9439 18.811 34.9439 19.618 34.3839 19.717C33.3968 19.8884 32.4823 20.3478 31.7555 21.0374C31.0287 21.7271 30.5219 22.6162 30.2989 23.593L30.2579 23.771C30.1319 24.322 29.3469 24.319 29.2259 23.766L29.1919 23.614C28.9773 22.6328 28.4752 21.7379 27.7498 21.0433C27.0243 20.3486 26.1085 19.8859 25.1189 19.714Z" stroke="white" stroke-width="1.714" stroke-linecap="round" stroke-linejoin="round"/>
<defs>
<radialGradient id="paint0_radial_157_741" cx="0" cy="0" r="1" gradientUnits="userSpaceOnUse" gradientTransform="translate(25.19 -20.835) scale(33.76 83.855)">
<stop stop-color="#EA2B7B"/>
<stop offset="1" stop-color="#3B00B9"/>
</radialGradient>
</defs>
</svg>
