<svg xmlns="http://www.w3.org/2000/svg" xmlns:xlink="http://www.w3.org/1999/xlink" width="1440" height="690" viewBox="0 0 1440 690"><defs><path id="a" d="M0 0h1440v690H0z"/></defs><g fill="none" fill-rule="evenodd"><mask id="b" fill="#fff"><use xlink:href="#a"/></mask><use fill="#F1F5F4" xlink:href="#a"/><g mask="url(#b)"><path fill="#F0F0F0" fill-rule="nonzero" d="M-22.417-346h1463.146V859.55H-22.417z"/><path fill="#FA7963" fill-rule="nonzero" d="M1060.066 446.945c-149.341 39.477-309.051 26.533-457.555-15.97-52.679-15.07-104.262-33.746-157.198-47.72-152.368-40.25-315.105-40.314-467.73-1.16V859.55h1463.145V352.472c-62.209 2.705-124.16 12.75-183.988 30.01-66.33 19.062-129.957 46.818-196.674 64.463z"/><path fill="#C65" fill-rule="nonzero" d="M323.47 691.082c126.673-14.683 250.963-51.004 378.473-53.516 20.35-.386 41.473-.064 60.02-8.372 13.266-5.924 24.214-15.842 35.806-24.536 53.837-40.249 122.036-54.674 187.916-68.07 20.092-4.057 40.25-8.178 60.342-12.235-21.252-28.593-54.03-43.598-87.132-58.603-118.816 13.395-241.046-1.803-356.449-34.776-52.678-15.07-104.262-33.745-157.198-47.72-67.103-17.71-136.14-27.627-205.497-29.88-19.9 3.735-39.67 7.92-59.311 12.622-6.762 1.61-14.168 3.735-17.968 9.595-10.754 16.486 16.68 30.59 27.112 47.269 9.403 15.134 3.349 35.935-9.08 48.686-12.429 12.75-29.752 19.255-46.432 25.502-52.356 19.641-104.584 39.863-156.49 60.792V693.4c115.404 6.44 231.193 11.012 345.888-2.318z"/><path fill="#FF7963" fill-rule="nonzero" d="M-22.417 700.935L356.57 578.77l217.926-36.385H819.6l77.858-19.513 62.274-27.241 112.827 19.448h128.412l73.93-34.968 165.827 7.728v345.178H-22.417z"/><path fill="#1EBEA0" fill-rule="nonzero" d="M740.852 625.235l-54.342-48.93s17.77 8.287 37.974 26.479c-9.746-11.326-17.929-20.115-27.652-31.442-.28-.315-.547-.785-.3-1.106.257-.332.781.432.361.388 10.87 9.265 23.277 20.792 34.157 30.045-3.224-11.14-4.858-23.231-4.587-34.84.223.264.468.526.69.79 1.176 11.3 4.09 23.666 9.561 33.61.832-11.21 4.82-19.074 9.837-29.127l-2.19 30.64c4.578-8.38 12.153-13.914 18.558-20.982-2.478 8.325-10.086 22.903-10.466 31.591l-11.601 12.884z"/><path fill="#D9523B" fill-rule="nonzero" d="M1337.24 578.77h-141.743s-54.482 11.785-62.66 20.543c-8.179 8.759-81.787 23.184-81.787 23.184l-79.018-23.184H803.114l-34.132 8.437 112.827 23.248 346.918 10.175h118.365l36.772 34.968 56.864 5.088v-150.63L1337.24 578.77z"/><g fill-rule="nonzero"><path fill="#C85542" d="M1440.278 859.55H-22.868V556.424l88.355-14.04h92.67l90.61 35.034 292.758 25.502 54.417-10.626c15.263-2.963 31.105-.837 45.015 6.118l23.828 11.914 86.488-6.183 130.086 26.79 346.917 10.175h118.366l36.771 34.969 56.865 5.087V859.55z"/><path fill="#F96850" d="M155.71 569.303l76.184 17.195 33.939 19.384-7.921-17.13 74.702 10.561 201.44 18.87 69.036-12.301 41.86 12.3-48.686 15.971 77.794-13.652 63.69-3.414 41.86-2.254 83.783 19.32 47.527 6.698 422.135 9.08 47.527 36.192 60.084 8.5v-13.459l-56.864-5.087-36.772-34.969h-118.365l-346.918-10.175-130.086-26.79-86.488 6.183-23.828-11.914c-13.91-6.955-29.752-9.145-45.015-6.118l-54.417 10.626-292.758-25.502-90.61-35.033H65.939l-88.355 14.039v15.455c34.518-6.246 93.25-12.042 93.25-12.042l84.877 9.466z"/><path fill="#C65" d="M1045.06 763.338c-74.444-12.494-150.5-10.884-225.975-8.63-66.718 1.996-134.208 4.25-199.38-10.11-41.601-9.145-81.464-24.987-122.358-36.901-170.528-49.652-360.763-32.264-519.764-108.448v34.84c1.288.58 2.64 1.095 3.928 1.674 123.389 51.52 257.403 73.029 390.838 82.366 63.69 4.444 132.92 8.244 181.154 50.103 7.6 6.633 14.619 14.103 23.441 18.998 8.759 4.83 18.805 6.762 28.722 8.436 174.78 29.366 356.385-3.091 529.876 33.165 37.158 7.793 73.865 18.676 110.38 30.719h124.74c-20.028-4.959-39.863-10.69-59.376-16.873-88.42-27.756-174.778-63.948-266.225-79.34z"/><path fill="#F96850" d="M814.512 719.61c-54.481-1.352-109.156-3.026-162.672-13.266-37.48-7.148-74.123-18.482-111.41-26.725-155.974-34.711-323.025-16.937-472.302-73.93-24.73-9.467-60.342-16.293-90.545-26.919v20.543c158.936 76.184 349.236 58.797 519.764 108.448 40.894 11.914 80.757 27.692 122.358 36.9 65.172 14.362 132.727 12.043 199.38 10.112 75.475-2.254 151.53-3.864 225.976 8.629 91.447 15.391 177.806 51.648 266.225 79.404 19.513 6.118 39.348 11.85 59.376 16.873h70.066v-26.533c-116.11-28.013-230.033-72.706-348.076-93.443-91.64-16.228-185.147-17.774-278.14-20.092z"/><path fill="#C85542" d="M605.666 795.666c-9.917-1.674-19.963-3.606-28.722-8.436-8.822-4.895-15.842-12.365-23.44-18.998-48.236-41.86-117.465-45.659-181.155-50.103-133.435-9.337-267.385-30.847-390.838-82.366-1.288-.58-2.64-1.095-3.928-1.674v225.396H1245.92c-36.514-12.042-73.286-22.926-110.38-30.718-173.49-36.192-355.096-3.735-529.875-33.101z"/></g><g fill-rule="nonzero"><path fill="#4BCBB3" d="M-7.417 759.55V456.424s23.763 77.73 23.763 190.427c7.857-61.436 12.236-111.023 20.157-172.396.193-1.739.901-3.864 2.576-3.992 1.739-.13.837 3.606-.193 2.19 1.61 59.182.515 129.377 2.19 188.56 25.372-40.83 58.087-79.405 94.601-110.767-.193 1.417-.322 2.898-.515 4.315-31.555 34.968-61.565 78.245-77.021 122.68 36.836-28.529 72.127-38.06 117.013-50.489L74.69 705.197c38.511-9.145 76.57-1.16 116.112-1.03-32.522 15.455-98.53 32.457-126.351 55.383h-71.87z"/><path fill="#1EBEA0" d="M.135 779.126V519.23s20.374 66.645 20.374 163.27c6.736-52.675 10.49-95.19 17.282-147.81.166-1.49.773-3.312 2.209-3.423 1.49-.11.717 3.092-.166 1.877 1.38 50.743.442 110.927 1.877 161.67 21.755-35.007 49.804-68.08 81.11-94.97-.165 1.215-.275 2.485-.44 3.7-27.056 29.98-52.786 67.085-66.038 105.183 31.583-24.46 61.84-32.632 100.325-43.288l-86.135 67.086c33.019-7.84 65.65-.994 99.553-.883-27.884 13.251-84.479 27.828-108.332 47.484H.134z"/></g><g fill-rule="nonzero" transform="translate(245.483 272.355)"><path fill="#212119" d="M35.097 148.231c-.772 1.16-29.43 22.41-22.926 85.973h3.864s-3.477-60.085 21.188-77.472l-2.126-8.5z"/><path fill="#141410" d="M.258 245.602c1.738-1.996 3.413-3.992 5.152-5.989-2.834 3.35-3.22 8.05-3.414 12.43-.386 12.106.387 24.213 2.383 36.192 1.481-5.152 2.898-10.304 4.38-15.52-2.062 18.997 5.666 37.544 7.148 56.606.772-2.06.966-4.379.708-6.569 2.06 11.914.386 24.472-4.766 35.356 10.82-7.728 17.324-21.123 16.744-34.39l2.125 5.99a41.14 41.14 0 00.902-19.191c1.932 1.996 3.864 4.057 5.86 6.053.451-15.456-1.095-30.976-4.508-45.98l3.091 2.897a128.56 128.56 0 00-14.103-31.04l2.705-.387c-2.512-4.7-5.023-9.402-7.6-14.103-3.734-6.89-7.598-1.481-10.625 3.027-1.546 2.254-2.834 4.701-3.864 7.213-.773 1.803-1.095 6.053-2.318 7.405z"/><path fill="#333325" d="M453.37 95.88S371.84 5.097 308.144.535c0 0 80.046 20.902 134.758 99.949l10.466-4.606zM312.206 263.248c-1.094.386-16.614 65.043-16.872 75.411-.258 10.368-13.524 64.657 0 92.863l10.561 12.236.516 3.993-3.864-2.383-4.058 2.383-10.497 2.834-2.382-5.99-4.637-2.576-6.311 2.126 1.159-2.705-3.864.45 2.834-16.357s2.769-60.148-2.834-74.574l11.914-73.93 28.335-13.781zm-176.131-3.156s-60.02 55.963-54.61 88.356c5.41 32.392 12.493 71.547 12.493 71.547l13.138 14.168-10.884 8.05-15.649-1.675 1.481-8.114s-6.44-4.444-9.981 0v-3.091l-3.092 1.095s3.8-5.346 3.092-16.873c-.644-11.527-20.222-83.525-20.222-83.525s28.98-97.05 84.234-69.938z"/><path fill="#C8C8C8" d="M497.804 166.778l-26.146-36.836-6.697-23.441-11.592-11.27-20.994 9.466-29.237.322s-38.962 17.646-57.25 15.843c-18.29-1.804-87.004-14.812-87.004-14.812s-29.688 22.346-59.762 19.513c-30.075-2.834-98.853-11.914-98.853-11.914s-128.347 9.08-54.546 156.747c0 0 1.932 36.9-22.926 55.126 0 0 35.549 80.692 19.964 113.728 0 0 13.33-8.694 13.588 7.342l4.25 5.087s11.786-13.395 22.476-8.307v-4.573S40.056 398.55 58.41 344.97c18.354-53.58 42.825-79.79 42.825-79.79s25.245-10.11 38.704 2.833c13.46 12.944 47.076 41.473 99.819 17.388l6.89 59.891.515 17.967 6.698 16.422s3.606 54.417-6.182 68.263c0 0 12.3-7.92 15.391 8.243 0 0 15.391-11.785 25.695-3.09 0 0-20.8-12.623-21.187-30.784-.386-18.16-1.16-55.64 5.28-74.574 6.44-18.933 13.524-68.778 13.524-68.778s27.37.45 43.405-19.384c16.036-19.835 64.092-77.813 108.656-79.036l23.892 17.58 13.831-.69s11.399 10.949 18.87 9.21c7.47-1.739 14.875-6.569 14.875-6.569l3.285-12.3-15.392-20.994z"/><path fill="#E7EAEE" d="M407.952 160.145c-10.503-2.125-21.07-4.186-31.573-6.311a1100.59 1100.59 0 018.966 8.565c-16.267-1.224-32.854 1.996-47.52 9.209 6.084.193 12.233.386 18.317.58-15.947 5.795-32.278 10.497-48.865 14.167 6.469 1.546 13.001 3.156 19.47 4.701-9.287.966-18.637 1.868-27.923 2.834 2.882 2.705 6.852 4.186 10.759 4.122-17.035 4.057-35.671.901-50.401-8.566 2.113 4.122 4.29 8.18 6.404 12.3-10.567-4.636-21.198-9.208-31.765-13.845l7.877 11.399c-12.36-2.834-24.656-5.732-37.016-8.566 3.33 2.126 5.7 5.668 6.468 9.531-8.325.773-16.907-.901-24.4-4.765a50.436 50.436 0 013.394 14.747 84.55 84.55 0 01-16.458-4.186c1.793 3.285 3.586 6.634 5.38 9.918-8.262-.129-16.588-.837-24.785-2.06 4.227 3.412 8.39 6.761 12.616 10.174-11.4 1.224-22.863 2.383-34.262 3.606a62.71 62.71 0 0123.183 2.254c-18.957 2.254-37.849 8.437-52.77 20.415A73.032 73.032 0 0086.972 268.4l14.41-9.274c-1.794 2.512-3.587 4.959-5.38 7.47a51.578 51.578 0 0013.833-7.212c-.769 1.288-1.473 2.64-2.178 3.993 8.07-2.19 23.696-4.766 33.302 4.507 13.385 12.88 48.288 39.506 100.738 15.42l5.38 61.86.512 17.967 3.33 8.21 3.33 8.211s3.587 54.418-6.147 68.263c0 0 12.232-7.92 15.306 8.243 0 0 13.128-10.11 23.183-4.7-5.444-3.929-18.38-14.812-18.7-29.173-.385-18.161-1.153-55.641 5.251-74.575 6.404-18.933 13.449-68.778 13.449-68.778s27.218.451 43.164-19.384c15.947-19.835 64.082-78.6 108.399-79.824l7.645 5.375c-14.537-14.296-29.715-25.949-45.47-38.893a426.227 426.227 0 007.622 14.039z"/><path fill="#CAD0D7" d="M413.12 156.345c3.155 2.64 5.731 5.925 7.47 9.66-5.023-1.61-10.11-3.284-15.134-4.894 2.061 1.352 3.864 3.155 5.152 5.216-7.92.322-15.906.58-23.827.902 2.769 1.932 5.538 3.8 8.307 5.731-6.44.322-12.944-.901-18.869-3.413 2.705 2.06 5.474 4.122 8.179 6.247-5.41.58-10.82 1.16-16.164 1.739a12.95 12.95 0 018.822 4.25 86.23 86.23 0 01-24.02 2.64c4.636.966 9.08 2.77 13.137 5.217-5.28 2.254-10.497 4.508-15.778 6.762 4.122.515 8.243.966 12.365 1.48-4.637 4.058-9.274 8.18-13.91 12.237a201.29 201.29 0 006.117-.644c-8.758 6.955-19.126 11.913-30.01 14.425 2.254.258 4.444.515 6.698.773-3.8 2.898-8.114 5.216-12.622 6.826 3.735-.386 7.534.129 11.076 1.417a51.882 51.882 0 01-19.126 9.982c3.735-.58 7.663 0 11.012 1.738-9.273 5.732-19.513 9.79-30.203 12.107 2.383 1.03 4.766 2.061 7.084 3.027-9.402 4.057-19.77 5.99-30.01 5.667 4.83 6.44 10.69 12.043 17.194 16.68.322-1.997.451-3.156.451-3.156s27.37.45 43.405-19.384c16.036-19.835 63.433-77.6 107.997-78.824l.838.644c-7.47-10.626-15.971-21.316-25.631-25.052zM237.568 286.303c-1.932-12.623-4.38-25.18-6.89-37.738.321.515.708.966 1.03 1.48-4.186-14.038-6.569-28.592-7.02-43.21-5.603 10.818-7.792 23.376-6.118 35.419-3.67-1.353-7.02-3.478-9.853-6.183l3.091 11.785c-3.67-2.19-7.277-4.443-10.947-6.633 2.769 3.542 4.379 7.921 4.636 12.43a10946.89 10946.89 0 00-27.112-11.593 62.804 62.804 0 0012.494 14.233c-15.327-9.467-34.26-11.979-52.1-9.403-13.78 1.997-26.982 6.955-39.347 13.46l-4.637 6.375a51.968 51.968 0 0013.91-7.212c-.772 1.288-1.48 2.64-2.189 3.992 8.114-2.19 23.828-4.765 33.487 4.508 13.46 12.88 47.076 41.473 99.819 17.388-.708.258-1.481.58-2.254.902z"/><path fill="#212119" d="M94.924 266.66c1.803-2.51 3.607-4.958 5.41-7.47-5.41 3.414-10.755 6.891-16.164 10.304 1.996-4.507 3.992-9.015 5.989-13.588-6.44 7.02-12.945 14.04-20.672 19.642a47.397 47.397 0 015.345-11.785c-3.478 2.77-7.02 5.538-10.497 8.372a36.452 36.452 0 013.67-10.304 186.343 186.343 0 00-13.266 10.24c.709-3.607 1.353-7.213 2.06-10.755a68.228 68.228 0 01-8.435 10.754c0-3.8-.065-7.599-.065-11.398-.901 2.898-1.803 5.731-2.704 8.63-.387-3.865-1.675-7.6-3.8-10.82 0 1.16.064 2.319.064 3.478 1.288 2.705 2.576 5.474 3.993 8.307 0 0 1.932 36.9-22.926 55.126 0 0 35.548 80.692 19.964 113.728 0 0 13.33-8.693 13.588 7.342l4.25 5.087s11.785-13.395 22.476-8.307v-4.572s-43.019-40.25-24.665-93.83c18.353-53.58 42.825-79.79 42.825-79.79s1.996-.837 5.216-1.674a122.42 122.42 0 012.19-3.993c-4.186 3.155-8.887 5.603-13.846 7.277z"/><path fill="#333327" d="M63.175 319.532c-3.413 5.474-7.083 10.82-11.076 15.907.901-5.99 2.769-11.785 5.41-17.194a138.565 138.565 0 00-10.562 15.39c1.932-5.988 3.8-11.913 5.731-17.902-3.155 3.155-6.053 6.504-8.822 10.046a106.88 106.88 0 015.152-19.448c-2.963 4.572-5.925 9.209-8.887 13.781 3.026-8.307 6.053-16.55 9.08-24.858-3.349 5.088-6.633 10.24-9.982 15.327 2.19-5.345 4.444-10.755 6.633-16.1-1.996 2.77-3.928 5.539-5.925 8.308-3.413 8.243-8.693 16.486-17.065 22.54 0 0 35.548 80.691 19.963 113.728 0 0 13.33-8.694 13.589 7.342l4.25 5.087s11.785-13.395 22.475-8.307v-4.573s-43.018-40.25-24.665-93.83c1.224-3.541 2.447-7.019 3.735-10.367 0-4.895.322-9.918.966-14.877z"/><path fill="#212119" d="M278.304 271.233c-2.869-1.159-6.47 1.417-6.204 4.38-4.002-4.251-8.072-8.566-12.074-12.816-.2 2.898-.4 5.86-.6 8.758-3.936-2.511-7.338-5.796-9.806-9.66-1.734.644-2.535 3.027-1.467 4.508-7.138-4.83-13.408-10.883-18.411-17.774 2.601 12.558 5.136 25.116 7.137 37.738.8-.322 1.601-.644 2.402-1.03l7.137 59.89.534 17.968 6.937 16.422s3.736 54.417-6.404 68.263c0 0 12.741-7.921 15.943 8.243 0 0 13.675-10.11 24.148-4.701-5.67-3.929-19.145-14.812-19.478-29.173-.4-18.16-1.201-55.64 5.47-74.574 5.67-16.164 11.873-54.804 13.607-65.816-1.667-2.576-3.468-5.152-5.403-7.599-1-1.224-2-2.447-3.468-3.027zM447.586 99.89s-69.31-65.54-163.101-87.327c0 0 108.57 38.438 147.56 90.914 0-.044 7.59 5.004 15.541-3.587z"/><path fill="#B2B2B2" d="M416.082 118.221s-7.599-8.951-13.524-16.872c-5.087-6.762-13.073-10.755-21.509-10.755h-7.406s-1.352 29.237 22.604 32.521l12.687 13.524c0 .065 9.08-5.087 7.148-18.418z"/><path fill="#333325" d="M480.731 196.098c.292-.236 6.17-1.452 9.4-.67 3.232.78 14.36 9.622 14.36 9.622s-10.225-13.52-16.865-13.108l-6.895 4.156z"/><path fill="#212119" d="M471.594 129.942s-10.755 16.615-3.091 28.529c7.663 11.913 22.668 3.67 29.301 8.307l-26.21-36.836zm-37.029 50.939c-.58.065-6.57-5.667-6.57-5.667s-7.405-29.108-6.181-35.677c1.288-6.568 3.606-10.819 3.606-10.819s8.5 26.726 14.425 29.946l-1.674-21.96s5.538 2.19 10.626-3.735c0 0 .837 28.657 1.932 32.07 1.095 3.413 18.29 32.78 18.29 32.78l-7.214.45-23.892-17.58-3.348.192z"/><path fill="#333325" d="M431.538 130.586c-.258-.387 7.341-10.69 19.577-.644-.064 0-9.724 16.228-19.577.644z"/><circle cx="445.834" cy="129.877" r="2.19" fill="#DCD5CC"/></g><g fill-rule="nonzero"><path fill="#212119" d="M1239.224 449.135c-1.224 1.867-46.883 35.612-36.45 136.848h6.118s-5.538-95.697 33.745-123.324l-3.413-13.524z"/><path fill="#141410" d="M1183.776 604.208c2.77-3.22 5.474-6.376 8.243-9.596-4.507 5.345-5.151 12.816-5.41 19.77a292.103 292.103 0 003.8 57.573c2.319-8.243 4.637-16.421 6.956-24.664-3.22 30.203 9.015 59.826 11.463 90.094 1.159-3.349 1.545-6.955 1.094-10.433 3.35 18.933.644 38.962-7.599 56.35 17.26-12.3 27.627-33.617 26.597-54.804 1.095 3.155 2.254 6.375 3.349 9.53 2.833-9.852 3.349-20.414 1.417-30.524l9.273 9.66c.708-24.6-1.739-49.266-7.213-73.287 1.61 1.546 3.285 3.092 4.895 4.637a201.334 201.334 0 00-22.476-49.394c1.417-.193 2.898-.386 4.315-.58-3.993-7.47-8.05-14.94-12.042-22.475-5.925-11.012-12.107-2.318-16.873 4.83a69.897 69.897 0 00-6.118 11.463c-1.288 2.963-1.739 9.66-3.67 11.85z"/><path fill="#333325" d="M1399.964 627.198s-95.504 89.128-86.939 140.712c8.565 51.584 19.9 113.857 19.9 113.857l20.93 22.54-17.26 12.815-24.987-2.704 2.319-12.88s-10.24-7.084-15.907 0v-4.959l-4.958 1.739s5.989-8.5 4.958-26.854c-1.03-18.354-32.2-132.92-32.2-132.92s46.24-154.493 134.144-111.346z"/><path fill="#C8C8C8" d="M1974.012 478.63l-41.56-58.668-10.662-37.287-18.371-17.903-33.338 15.005-46.377.515s-61.857 28.078-90.89 25.18c-29.035-2.898-138.104-23.634-138.104-23.634s-47.084 35.612-94.938 31.104c-47.79-4.507-156.924-18.997-156.924-18.997s-203.879 14.49-86.587 249.61c0 0 3.019 58.797-36.357 87.712 0 0 56.462 128.476 31.732 181.154 0 0 21.133-13.845 21.582 11.72l6.81 8.115s18.691-21.316 35.65-13.202v-7.341s-68.346-64.141-39.184-149.406c29.163-85.329 67.96-127.06 67.96-127.06s40.082-16.099 61.408 4.444c21.39 20.544 74.768 66.074 158.465 27.692l10.92 95.375.835 28.593 10.599 26.146s5.717 86.617-9.764 108.706c0 0 19.592-12.622 24.473 13.073 0 0 24.473-18.805 40.789-4.895 0 0-33.016-20.092-33.594-49.007-.579-28.915-1.799-88.549 8.414-118.688 10.213-30.138 21.519-109.478 21.519-109.478s43.486.644 68.923-30.847c25.436-31.556 100.719-123.582 171.505-125.514l37.898 28.014 22.996-1.417s18.114 17.452 29.933 14.683c11.819-2.77 23.702-10.497 23.702-10.497l5.203-19.577-24.666-33.424z"/><path fill="#E7EAEE" d="M1834.142 468.132c-16.872-3.348-33.68-6.697-50.553-10.046l14.36 13.588c-26.08-1.932-52.613 3.156-76.054 14.683l29.301.966a623.724 623.724 0 01-78.245 22.54c10.433 2.512 20.801 5.023 31.234 7.535-14.94 1.48-29.817 3.026-44.757 4.508 4.636 4.314 10.947 6.697 17.259 6.568-27.306 6.505-57.122 1.482-80.757-13.588 3.413 6.504 6.826 13.073 10.24 19.577-16.937-7.341-33.874-14.683-50.876-22.024l12.558 18.16c-19.77-4.507-39.476-9.08-59.247-13.588 5.28 3.413 9.145 9.016 10.304 15.198-13.395 1.224-27.048-1.48-39.026-7.599 2.962 7.47 4.83 15.392 5.41 23.442-9.016-1.353-17.839-3.542-26.404-6.633 2.834 5.28 5.732 10.561 8.565 15.777a292.52 292.52 0 01-39.67-3.284c6.762 5.41 13.46 10.819 20.222 16.229-18.29 1.931-36.58 3.8-54.868 5.731 12.429-1.16 25.115.064 37.093 3.542-30.331 3.606-60.599 13.46-84.491 32.457-10.046 7.986-18.869 17.774-25.76 28.722 7.664-4.894 15.392-9.789 23.055-14.747-2.898 3.928-5.731 7.92-8.63 11.85 7.857-2.706 15.392-6.57 22.09-11.464a120.315 120.315 0 00-3.478 6.311c12.944-3.477 37.931-7.599 53.258 7.148 21.445 20.544 74.96 66.074 158.872 27.692l10.948 95.375.837 28.593 10.626 26.146s5.732 86.617-9.788 108.706c0 0 19.641-12.622 24.536 13.073 0 0 20.994-16.1 37.093-7.47-8.693-6.247-29.43-23.635-29.945-46.432-.58-28.915-1.803-88.549 8.436-118.688 10.24-30.138 21.574-109.478 21.574-109.478s43.598.644 69.1-30.847c25.502-31.556 100.978-123.582 171.945-125.514l13.846 10.175a1057.156 1057.156 0 00-72.835-65.107c4.25 7.341 8.436 14.812 12.622 22.217z"/><path fill="#CAD0D7" d="M1561.605 668.993c-3.09-20.092-7.019-40.12-10.947-60.084.515.773 1.094 1.545 1.674 2.318-6.633-22.346-10.433-45.53-11.141-68.778-8.951 17.194-12.429 37.158-9.724 56.413-5.796-2.19-11.206-5.538-15.65-9.853 1.675 6.247 3.285 12.558 4.96 18.805-5.796-3.542-11.592-7.02-17.388-10.561 4.379 5.602 7.02 12.622 7.341 19.77-14.36-6.118-28.786-12.3-43.147-18.418 5.41 8.5 12.171 16.164 19.9 22.668-24.408-15.069-54.611-19.126-82.947-14.94-21.96 3.22-42.954 11.076-62.66 21.38-2.447 3.349-4.894 6.762-7.341 10.11 7.856-2.704 15.39-6.568 22.088-11.462a120.315 120.315 0 00-3.477 6.311c12.944-3.478 37.93-7.6 53.258 7.148 21.445 20.544 74.96 66.074 158.872 27.692a48.4 48.4 0 00-3.67 1.481z"/><path fill="#212119" d="M1334.406 637.76c2.898-3.929 5.731-7.922 8.63-11.85a8985.805 8985.805 0 01-25.76 16.422c3.155-7.213 6.375-14.426 9.53-21.574-10.239 11.141-20.607 22.347-32.907 31.234 1.932-6.633 4.83-12.945 8.5-18.74-5.602 4.443-11.14 8.887-16.743 13.266a54.76 54.76 0 015.924-16.358 323.202 323.202 0 00-21.123 16.293c1.095-5.731 2.19-11.463 3.285-17.13-3.864 6.183-8.436 11.914-13.46 17.13-.064-6.053-.064-12.107-.128-18.16-1.482 4.572-2.898 9.144-4.38 13.717-.58-6.118-2.704-12.107-6.117-17.26.064 1.868.064 3.736.064 5.604a486.236 486.236 0 006.375 13.266s3.027 58.796-36.45 87.711c0 0 56.607 128.476 31.814 181.155 0 0 21.187-13.846 21.638 11.72l6.826 8.115s18.74-21.316 35.742-13.202v-7.406s-68.521-64.141-39.284-149.406c29.237-85.329 68.134-127.06 68.134-127.06s3.22-1.287 8.308-2.64a551.533 551.533 0 013.477-6.31c-6.504 4.894-13.974 8.758-21.895 11.462z"/><path fill="#333327" d="M1283.917 721.865a273.581 273.581 0 01-17.645 25.308 97.358 97.358 0 018.565-27.37 211.914 211.914 0 00-16.809 24.537c3.027-9.467 6.118-18.998 9.145-28.464a205.777 205.777 0 00-14.039 15.97 155.894 155.894 0 018.243-30.975 1585.867 1585.867 0 00-14.103 21.96l14.49-39.606c-5.281 8.114-10.562 16.293-15.843 24.407 3.542-8.565 7.02-17.065 10.562-25.63-3.156 4.443-6.311 8.822-9.467 13.266-5.41 13.073-13.846 26.21-27.112 35.934 0 0 56.607 128.477 31.813 181.155 0 0 21.188-13.846 21.638 11.72l6.827 8.115s18.74-21.316 35.741-13.202v-7.277s-68.52-64.141-39.283-149.406c1.932-5.667 3.928-11.205 5.989-16.486-.193-7.985.257-16.035 1.288-23.956z"/></g><g fill-rule="nonzero"><g fill="#4C4C4C" opacity=".161" transform="translate(928.756 645.101)"><ellipse cx="169.82" cy="8.565" rx="16.615" ry="3.671"/><path d="M53.709 15.842C35.806 21.252 17.967 26.726.064 32.135c33.23 4.315 65.559-15.391 98.982-13.395-24.73 19.706-57.702 25.116-85.844 39.477 7.792 3.348 16.744 1.416 24.922-.709 41.087-10.754 81.014-25.952 118.752-45.401 17.001-5.216-11.205-4.057-13.202-4.701a177.302 177.302 0 00-14.232-3.67C119.911 1.738 109.607 0 99.818.45 93.25.773 88.871 3.413 83.01 5.989c-9.338 4.186-19.513 6.826-29.301 9.853z"/></g><path fill="#4C4C4C" d="M839.5 655.598c-17.904 5.41-35.742 10.883-53.645 16.293 33.23 4.315 65.558-15.391 98.981-13.395-24.73 19.706-57.701 25.116-85.844 39.477 7.793 3.348 16.744 1.416 24.923-.709 41.086-10.754 81.014-25.953 118.751-45.401 17.002-5.216-11.205-4.057-13.201-4.701a177.302 177.302 0 00-14.233-3.671c-9.53-1.996-19.834-3.735-29.623-3.284-6.569.322-10.948 2.962-16.808 5.538-9.274 4.25-19.449 6.89-29.302 9.853z" opacity=".161"/><g transform="translate(852.765 494.407)"><path fill="#686868" d="M10.819 59.183c-.258.386-9.016 6.826-7.02 26.339h1.16s-1.03-18.418 6.504-23.699l-.644-2.64z"/><path fill="#4F4F4F" d="M.129 89a41.551 41.551 0 011.61-1.868c-.837 1.03-.966 2.447-1.03 3.8-.13 3.67.128 7.405.708 11.076.45-1.61.901-3.155 1.352-4.765-.644 5.795 1.739 11.527 2.19 17.323a3.558 3.558 0 00.193-1.997c.644 3.671.129 7.47-1.481 10.82 3.284-2.383 5.28-6.44 5.087-10.562.193.58.451 1.224.644 1.803.58-1.867.644-3.928.258-5.86a48.49 48.49 0 001.803 1.868 57.898 57.898 0 00-1.352-14.104c.322.322.644.58.966.902-1.03-3.349-2.448-6.569-4.315-9.467.257-.064.58-.064.837-.129-.773-1.417-1.545-2.898-2.318-4.314-1.16-2.126-2.319-.451-3.22.901a14.336 14.336 0 00-1.16 2.19c-.321.644-.386 1.932-.772 2.382z"/><path fill="#686868" d="M138.844 42.954S103.038 2.576 75.154.515c0 0 35.162 9.338 59.118 44.5l4.572-2.06z"/><path fill="#3F3F3F" d="M93.765 150.114s2.64 3.091 3.349 4.38h-1.675l.516.386H86.68v-6.505c0 .065 3.735-.257 7.084 1.74z"/><path fill="#686868" d="M95.633 94.409c-.322.129-5.088 19.9-5.152 23.055-.065 3.155-4.122 19.77 0 28.4l3.22 3.735.128 1.224-1.223-.709-1.224.709-3.22.901-.708-1.803-1.417-.773-1.932.644.387-.837-1.16.129.902-5.023s.837-18.419-.902-22.862l3.671-22.604 8.63-4.186z"/><path fill="#3F3F3F" d="M32.844 146.701s3.09 2.962 4.121 4.637l-1.674-.193.386.58H25.31v-3.156c-.065-.065 3.091-1.482 7.535-1.868z"/><path fill="#686868" d="M41.73 93.443s-18.353 17.13-16.679 27.048a3203.02 3203.02 0 003.8 21.895l4.057 4.315-3.349 2.447-4.765-.515.45-2.447s-1.996-1.353-3.026 0v-.966l-.966.322s1.159-1.61.966-5.152c-.194-3.542-6.183-25.567-6.183-25.567s8.759-29.687 25.696-21.38z"/><path fill="#3F3F3F" d="M18.225 150.758v2.64l8.565.322-.322-.515 1.674.258s-1.996-4.315-3.348-4.766c-1.353-.45-5.796.451-6.57 2.061z"/><path fill="#999797" d="M152.432 64.85l-7.985-11.27-2.06-7.148-3.543-3.478-6.44 2.898-8.951.065s-11.914 5.409-17.517 4.83c-5.602-.58-26.596-4.573-26.596-4.573S70.26 53 61.05 52.164c-9.209-.838-30.267-3.672-30.267-3.672s-39.284 2.77-16.68 47.978c0 0 .58 11.27-7.02 16.872 0 0 10.884 24.73 6.119 34.84 0 0 4.057-2.64 4.186 2.254l1.288 1.546s3.606-4.122 6.89-2.512v-1.417s-13.137-12.3-7.534-28.722c5.602-16.421 13.073-24.407 13.073-24.407s7.728-3.091 11.85.837c4.12 3.929 14.425 12.687 30.524 5.345l2.125 18.354.13 5.474 2.06 5.023s1.095 16.68-1.868 20.866c0 0 3.8-2.448 4.702 2.511 0 0 4.7-3.606 7.856-.966 0 0-6.375-3.864-6.504-9.402-.129-5.538-.322-17.002 1.61-22.797 1.932-5.796 4.121-21.059 4.121-21.059s8.372.129 13.267-5.925c4.894-6.053 19.384-23.763 33.036-24.15l7.277 5.41 4.444-.257s3.478 3.348 5.796 2.833c2.318-.515 4.572-1.996 4.572-1.996l1.03-3.735-4.7-6.44z"/><path fill="#4F4F4F" d="M29.108 95.44c.58-.773 1.095-1.546 1.675-2.255-1.675 1.03-3.285 2.126-4.959 3.156.644-1.352 1.224-2.77 1.868-4.122-1.997 2.126-3.993 4.315-6.312 5.99.387-1.288.902-2.512 1.61-3.607a112.714 112.714 0 00-3.22 2.576 9.33 9.33 0 011.16-3.155c-1.417.966-2.77 2.06-4.057 3.155.193-1.095.45-2.19.644-3.284-.773 1.159-1.61 2.318-2.576 3.284v-3.477c-.258.901-.58 1.738-.838 2.64a8.012 8.012 0 00-1.159-3.349v1.095c.387.837.773 1.674 1.224 2.576 0 0 .58 11.27-7.02 16.872 0 0 10.884 24.73 6.118 34.84 0 0 4.057-2.64 4.186 2.254l1.288 1.546s3.606-4.122 6.89-2.512v-1.416s-13.137-12.3-7.534-28.722C23.7 103.103 31.17 95.117 31.17 95.117s.644-.257 1.61-.515c.193-.386.45-.837.644-1.223-1.352.772-2.833 1.545-4.315 2.06z"/><path fill="#3F3F3F" d="M86.295 151.209s3.09 2.962 4.121 4.637l-1.674-.194.386.58-9.016-.193-1.867-5.86c0-.065 3.606 1.416 8.05 1.03z"/><path fill="#4F4F4F" d="M85.007 96.856c-.837-.322-1.932.45-1.868 1.353-1.159-1.288-2.383-2.64-3.542-3.929l-.193 2.705c-1.16-.773-2.19-1.803-2.898-2.962-.515.193-.773.901-.45 1.352a22.104 22.104 0 01-5.475-5.474c.773 3.864 1.546 7.664 2.125 11.527.258-.128.451-.193.709-.322l2.125 18.354.129 5.474 2.06 5.023s1.095 16.68-1.867 20.866c0 0 3.8-2.448 4.701 2.511 0 0 4.057-3.091 7.148-1.417-1.674-1.223-5.667-4.508-5.731-8.951-.129-5.538-.322-17.002 1.61-22.797 1.674-4.96 3.542-16.744 3.993-20.157a50.21 50.21 0 00-1.61-2.319c-.194-.322-.515-.708-.966-.837zm50.811-52.549S105.42 15.134 64.27 5.41c0 0 47.656 17.13 64.721 40.442 0 .065 3.349 2.254 6.827-1.545z"/><path fill="#B5AFA9" d="M127.381 49.974s-2.318-2.705-4.121-5.152a8.235 8.235 0 00-6.569-3.285h-2.254s-.45 8.952 6.89 9.982l3.865 4.122s2.833-1.546 2.19-5.667z"/><path fill="#333325" d="M154.815 75.798c-.129.064-1.932.193-2.898-.194-.966-.386-3.928-3.541-3.928-3.541s2.512 4.507 4.572 4.7l2.254-.965z"/><path fill="#4F4F4F" d="M144.383 53.58s-3.285 5.088-.966 8.694c2.318 3.67 6.955 1.159 8.951 2.576l-7.985-11.27zm-11.335 15.585c-.193 0-1.996-1.74-1.996-1.74s-2.254-8.886-1.868-10.947c.387-1.996 1.095-3.284 1.095-3.284s2.576 8.178 4.444 9.144l-.515-6.697s1.674.644 3.22-1.16c0 0 .257 8.759.58 9.79.321 1.03 5.602 10.045 5.602 10.045l-2.19.13-7.277-5.41-1.095.129z"/><path fill="#4F4F4F" d="M132.147 53.773c-.065-.129 2.254-3.284 5.989-.193 0 0-2.962 4.959-5.99.193z"/><circle cx="136.526" cy="53.58" r="1" fill="#DCD5CC"/></g><g transform="translate(999.595 497.627)"><path fill="#686868" d="M10.755 59.054c-.258.386-9.016 6.826-7.02 26.34h1.16s-1.031-18.419 6.504-23.7l-.644-2.64z"/><path fill="#4F4F4F" d="M.064 88.87a41.551 41.551 0 011.61-1.867c-.837 1.03-.966 2.447-1.03 3.8-.129 3.67.129 7.406.708 11.076.451-1.61.902-3.155 1.353-4.765-.644 5.796 1.739 11.527 2.19 17.323a3.558 3.558 0 00.193-1.996c.644 3.67.128 7.47-1.482 10.819 3.285-2.383 5.281-6.44 5.088-10.562.193.58.45 1.224.644 1.803.58-1.867.644-3.928.257-5.86a48.49 48.49 0 001.804 1.868 57.898 57.898 0 00-1.353-14.104c.322.322.644.58.966.902-1.03-3.349-2.447-6.569-4.315-9.467.258-.064.58-.064.838-.129-.773-1.416-1.546-2.897-2.319-4.314-1.159-2.125-2.318-.451-3.22.901a14.33 14.33 0 00-1.159 2.19c-.257.644-.386 1.932-.773 2.383z"/><path fill="#686868" d="M138.78 42.825S102.974 2.447 75.09.386c0 0 35.161 9.338 59.118 44.5l4.572-2.06z"/><path fill="#3F3F3F" d="M32.78 146.572s3.09 2.963 4.12 4.637l-1.674-.193.387.58H25.244v-3.156c0-.065 3.092-1.481 7.535-1.868z"/><path fill="#686868" d="M41.666 93.25s-18.354 17.13-16.68 27.047c1.675 9.918 3.8 21.896 3.8 21.896l4.058 4.315-3.35 2.447-4.765-.515.451-2.447s-1.996-1.353-3.027 0v-.966l-.966.322s1.16-1.61.966-5.152c-.193-3.542-6.182-25.567-6.182-25.567s8.758-29.688 25.695-21.38z"/><path fill="#3F3F3F" d="M18.16 150.63v2.64l8.566.322-.322-.516 1.674.258s-1.996-4.315-3.349-4.765c-1.352-.451-5.796.45-6.568 2.06zm81.336-6.44s-2.64 3.09-3.735 3.992l-.257-1.674-.322.58-1.546-9.145 6.44-1.095c0 .064.902 3.735-.58 7.341z"/><g fill="#686868"><path d="M101.3 109.93c-1.482-2.834-6.762-22.476-6.505-22.734L83.268 98.66l13.524 18.032c1.03.902 2.511 2.962 3.992 5.345l3.929-3.027c-1.61-4.25-2.77-7.92-3.413-9.08z"/><path d="M103.103 141.356l-2.125-4.508c-.966-5.474 1.416-12.687 3.8-18.483l-4.96-.58c-1.545 6.827-4.379 15.585-4.379 15.585l-2.19 4.573 1.16.193-.58.708 1.997-.129 1.159 1.16.193 1.932h3.349l1.417-.387.966 1.03.193-1.094z"/></g><path fill="#999797" d="M152.368 64.721l-7.985-11.27-2.061-7.148-3.542-3.478-6.44 2.898-8.951.065s-11.914 5.41-17.517 4.83c-5.603-.58-26.597-4.573-26.597-4.573s-9.08 6.827-18.29 5.99c-9.208-.838-30.267-3.671-30.267-3.671S-8.565 51.133 14.04 96.34c0 0 .58 11.27-7.02 16.872 0 0 10.884 24.73 6.118 34.84 0 0 4.058-2.64 4.186 2.254l1.288 1.546s3.607-4.122 6.891-2.512v-1.416s-13.137-12.3-7.535-28.722S31.04 94.795 31.04 94.795s7.728-3.09 11.85.838c4.121 3.928 14.425 12.686 30.525 5.345l2.125 18.353.129 5.474 2.06 5.023s1.095 16.68-1.867 20.866c0 0 3.8-2.447 4.701 2.511 0 0 4.701-3.606 7.857-.966 0 0-6.376-3.864-6.504-9.402-.13-5.538-.322-17.001 1.61-22.797 1.932-5.796 4.121-21.059 4.121-21.059s8.372.13 13.266-5.924c4.895-6.054 19.384-23.764 33.037-24.15l7.277 5.41 4.444-.258s3.477 3.349 5.796 2.833c2.253-.515 4.572-1.996 4.572-1.996l1.03-3.735-4.7-6.44z"/><path fill="#4F4F4F" d="M29.044 95.31c.58-.772 1.095-1.545 1.674-2.253-1.674 1.03-3.284 2.125-4.958 3.155.644-1.352 1.223-2.769 1.867-4.121-1.996 2.125-3.993 4.314-6.31 5.989.385-1.288.9-2.512 1.61-3.607a112.714 112.714 0 00-3.22 2.576 9.33 9.33 0 011.158-3.155c-1.416.966-2.769 2.06-4.057 3.155.193-1.094.45-2.19.644-3.284-.773 1.16-1.61 2.318-2.576 3.284v-3.477c-.257.901-.58 1.739-.837 2.64a8.012 8.012 0 00-1.16-3.349v1.095c.387.837.774 1.675 1.224 2.576 0 0 .58 11.27-7.02 16.873 0 0 10.884 24.729 6.119 34.84 0 0 4.057-2.64 4.186 2.254l1.288 1.545s3.606-4.121 6.89-2.511v-1.417s-13.137-12.3-7.534-28.722c5.602-16.422 13.073-24.407 13.073-24.407s.644-.258 1.61-.516c.193-.386.45-.837.644-1.223-1.353.773-2.77 1.545-4.315 2.06z"/><path fill="#3F3F3F" d="M86.295 151.08s3.09 2.962 4.121 4.637l-1.674-.193.386.58-9.016-.194-1.867-5.86c-.065-.065 3.542 1.417 8.05 1.03z"/><path fill="#4F4F4F" d="M85.007 96.663c-.837-.322-1.932.45-1.868 1.352-1.159-1.288-2.383-2.64-3.542-3.928l-.193 2.705c-1.16-.773-2.19-1.803-2.898-2.963-.515.194-.773.902-.45 1.353a22.104 22.104 0 01-5.475-5.474c.773 3.864 1.546 7.663 2.125 11.527.258-.129.451-.193.709-.322l2.125 18.354.129 5.474 2.06 5.023s1.095 16.68-1.867 20.865c0 0 3.8-2.447 4.701 2.512 0 0 4.057-3.091 7.148-1.417-1.674-1.223-5.667-4.508-5.731-8.951-.129-5.539-.322-17.002 1.61-22.798 1.674-4.958 3.542-16.743 3.993-20.157a50.21 50.21 0 00-1.61-2.318c-.258-.257-.58-.644-.966-.837zm50.811-52.485S105.42 15.005 64.27 5.28c0 0 47.656 17.13 64.721 40.442 0 0 3.285 2.254 6.827-1.545z"/><path fill="#B5AFA9" d="M127.381 49.845s-2.318-2.705-4.121-5.152a8.235 8.235 0 00-6.569-3.284h-2.254s-.45 8.951 6.89 9.981l3.865 4.122s2.769-1.546 2.19-5.667z"/><path fill="#333325" d="M154.75 75.669c-.128.064-1.931.193-2.897-.193-.966-.387-3.928-3.542-3.928-3.542s2.511 4.508 4.572 4.7l2.254-.965z"/><path fill="#4F4F4F" d="M144.383 53.451s-3.285 5.088-.966 8.694c2.318 3.606 6.955 1.16 8.951 2.576l-7.985-11.27zm-11.399 15.585c-.193 0-1.996-1.739-1.996-1.739s-2.254-8.887-1.868-10.948c.386-1.996 1.095-3.284 1.095-3.284s2.576 8.178 4.443 9.144l-.515-6.697s1.675.644 3.22-1.16c0 0 .258 8.759.58 9.79.322 1.03 5.602 10.046 5.602 10.046l-2.19.128-7.276-5.409-1.095.129z"/><path fill="#4F4F4F" d="M132.082 53.644c-.064-.128 2.254-3.284 5.99-.193 0 0-2.963 4.959-5.99.193z"/><circle cx="136.462" cy="53.451" r="1" fill="#DCD5CC"/></g></g><path fill="#212119" fill-rule="nonzero" d="M657.057 386.99s-13.266-24.472-30.01-26.404c0 0 6.053 4.637 6.504 6.698.45 2.06-.515-2.061-.515-2.061s-3.606 6.569 1.61 12.042c3.027 3.156 7.535 4.315 11.785 3.285l.644-.129c.064 0 8.05 2.447 9.982 6.569z"/><path d="M-110 409.336c176.647-64.914 373.321-74.188 555.248-26.081 52.936 13.974 104.52 32.65 157.198 47.72 148.505 42.438 308.214 55.447 457.555 15.97 66.718-17.645 130.344-45.401 196.61-64.463 131.503-37.931 272.924-40.83 405.908-8.5"/></g></g></svg>