<svg xmlns="http://www.w3.org/2000/svg" viewBox="0 0 208 75"><path
        fill="#000"
        d="M24.554 66.076l.123.512a3.847 3.847 0 0 1-.012 1.71A3.264 3.264 0 0 1 24 69.621a2.923 2.923 0 0 1-1.09.813 2.992 2.992 0 0 1-1.35.228 4.098 4.098 0 0 1-1.387-.339 5.244 5.244 0 0 1-1.242-.763 5.715 5.715 0 0 1-1.019-1.09 5.327 5.327 0 0 1-.708-1.364l-.031-.091c-.01-.029-.019-.059-.027-.09l-.027-.089a4.377 4.377 0 0 0-.024-.09l-.008-.014-.005-.014-.008-.013-.005-.014c.16.092.32.192.476.3.156.108.306.225.444.352.139.13.266.27.371.423.105.155.192.322.254.506l.022.076c.008.025.013.05.02.074.006.026.013.049.017.074.006.023.011.048.016.075.2.17.404.337.613.491.208.155.42.297.64.42.219.125.445.226.676.301.235.075.477.122.727.132.256.01.46-.033.632-.112a1.28 1.28 0 0 0 .431-.348c.123-.147.227-.32.335-.505.11-.185.22-.385.353-.579l-.044-.1-.04-.105-.036-.104-.03-.109a.806.806 0 0 1 .069-.568c.088-.177.232-.34.403-.495.175-.153.376-.3.574-.434.202-.137.399-.263.56-.38zM5.524 42.372c.058-.024.113-.048.17-.07l.171-.061a4.132 4.132 0 0 1 .348-.095l1.948 5.733a11.779 11.779 0 0 0-1.464-1.144 8.317 8.317 0 0 0-1.455-.764 6.01 6.01 0 0 0-1.428-.382 5.025 5.025 0 0 0-1.387 0c.163-.386.335-.715.517-1.002.181-.29.375-.536.58-.757.204-.22.423-.415.657-.598.235-.184.485-.358.753-.535.048-.033.098-.063.146-.093.05-.029.098-.058.147-.085a3.061 3.061 0 0 1 .298-.147zM7.1 42.06c.529.02 1.062.16 1.593.411a6.593 6.593 0 0 1 1.594 1.098 11.29 11.29 0 0 1 1.542 1.755c.5.694.98 1.49 1.427 2.378l-4.245-.062-1.91-5.58zm2.518 7.342l4.47.142a29.698 29.698 0 0 1 .886 2.556 33.926 33.926 0 0 1 1.1 5.075c.106.74.187 1.475.245 2.205.06.729.095 1.45.11 2.159.012.708.004 1.405-.027 2.084a52.89 52.89 0 0 0-1.416-4.432 43.932 43.932 0 0 0-1.643-3.882 33.14 33.14 0 0 0-1.81-3.276 23.32 23.32 0 0 0-1.915-2.631zM0 8.313a138.498 138.498 0 0 0 1.708 9.083c.349 1.568.728 3.156 1.138 4.757.416 1.612.865 3.238 1.343 4.871a138.85 138.85 0 0 0 2.331 7.223c.412 1.162.832 2.296 1.26 3.4.43 1.11.868 2.192 1.31 3.24a4.827 4.827 0 0 0-.584-.234 3.913 3.913 0 0 0-1.161-.192c-.191 0-.382.014-.57.044a117.77 117.77 0 0 1-1.279-4.097 135.08 135.08 0 0 1-1.2-4.351 160.026 160.026 0 0 1-2.113-9.361 172.82 172.82 0 0 1-1.274-7.34A161.971 161.971 0 0 1 0 8.314zm37.83 23.836l.032-.007.033-.004.031-.005.034-.005a43.116 43.116 0 0 1 1.92-.263c.601-.065 1.178-.107 1.742-.113.56-.007 1.108.022 1.662.096.55.073 1.101.192 1.674.365-.984.385-1.947.832-2.888 1.34a27.301 27.301 0 0 0-2.793 1.74 29.45 29.45 0 0 0-2.674 2.14 31.877 31.877 0 0 0-2.52 2.54l.798-7.083a18.641 18.641 0 0 1 2.95-.741zm-6.076 10.76A36.627 36.627 0 0 0 29 47.473a39.094 39.094 0 0 0-2.193 5.217 40.383 40.383 0 0 0-2.094 12.064 17.401 17.401 0 0 1-1.41-2.085 18.099 18.099 0 0 1-1.118-2.316 18.879 18.879 0 0 1-.8-2.514 20.053 20.053 0 0 1-.566-4.515c-.009-.607.01-1.211.056-1.81a21.358 21.358 0 0 1 .555-3.498l10.324-5.107z"
    /><path
        fill="#4C4C4C"
        d="M22.275 45.324l.05-.127.052-.125.054-.126c.016-.042.034-.082.05-.125.488-1.655 1.27-3.073 2.162-4.583.873-1.476 1.847-3.032 2.747-4.965.875-1.883 1.673-4.114 2.232-6.96.54-2.754.85-6.065.782-10.157a222.988 222.988 0 0 0-.13-5.12 101.723 101.723 0 0 0-.28-4.709A58.685 58.685 0 0 0 29.478 4a39.131 39.131 0 0 0-.836-3.973 63.18 63.18 0 0 1 2.011 6.105 68.61 68.61 0 0 1 1.494 6.82c.264 1.577.505 3.32.693 5.216.191 1.928.328 4.023.375 6.276a86.057 86.057 0 0 1-.17 7.43 94.239 94.239 0 0 1-1 8.762l-.005.004v.009l-9.765 4.675"
    /><path
        fill="#000"
        d="M69.195 54.489c-6.667 0-9.667-3.32-9.667-7.635l.334-.332h4l.333.332c0 2.323 1.334 3.651 5.334 3.651 3 0 4.666-.996 4.666-2.987 0-2.324-1.333-2.988-6-3.652-4.667-.664-8.333-2.324-8.333-6.972 0-3.32 2.666-6.307 9-6.307 6.333 0 9 2.987 9 6.971l-.333.332h-4l-.334-.332c0-1.992-1-2.988-4.666-2.988-3 0-4 .996-4 2.324 0 1.992 1.333 2.656 6 3.32 4.666.664 8.333 2.656 8.333 7.304 0 3.651-2.667 6.97-9.667 6.97m20-13.278c-2.667 0-3.667 1.992-3.667 4.648 0 2.655 1 4.647 3.667 4.647 2.666 0 3.667-1.992 3.667-4.647 0-2.656-1-4.648-3.667-4.648zm1 13.279c-3 0-4.334-1.66-4.334-1.66h-.333v7.636l-.333.331h-4l-.334-.331V37.89l.334-.332h3.666l.334.332.333.996h.333s1.334-1.66 4.334-1.66c4 0 7.333 3.32 7.333 8.632 0 5.311-3.333 8.63-7.333 8.63zm20-12.947h-2.334c-2.667 0-3.667 1.328-3.667 4.316v7.967l-.333.332h-4l-.333-.332V37.89l.333-.332h3.667l.333.332.333.996h.334s.666-1.328 3.667-1.328h2l.333.332v3.32l-.334.332m12.333 12.947c-1.333 3.32-2.666 5.312-7.333 5.312h-1.667l-.333-.332v-3.32l.333-.332h1.667c1.666 0 2-.332 2.333-1.328v-.332l-5.333-12.947v-3.32l.333-.332h3l.334.332 4 11.287h.333l4-11.287.333-.332h3l.334.332v3.32l-5.334 13.279m21.667-.332h-2l-.667-.332-4.666-4.98h-.334l-2 1.992-.333.664v2.324l-.334.332h-4l-.333-.332V31.251l.333-.332h4l.334.332V44.53h.333l6.667-6.64.667-.332h2l.333.332v3.32l-4 3.984v.332l4.333 4.98v3.32l-.333.331m12.333-10.291c0-.332-.333-2.656-3-2.656s-3 2.324-3 2.656l.333.332h5.334l.333-.332zm5 3.32l-.333.332H150.86l-.333.331c0 .664.666 2.656 3.333 2.656 1 0 2-.332 2.334-.996l.333-.332h4l.333.332c-.333 1.992-2 4.98-7 4.98-5.667 0-8.334-3.984-8.334-8.631 0-4.648 2.667-8.632 8-8.632 5.334 0 8 3.984 8 8.632v1.327zm13-5.644h-2.334c-2.667 0-3.667 1.328-3.667 4.316v7.967l-.333.332h-4l-.333-.332V37.89l.333-.332h3.667l.333.332.333.996h.334s.666-1.328 3.666-1.328h2l.334.332v3.32l-.334.332"
    /><path
        fill="#1EBEA0"
        d="M129.557 61.376H134c2.477 0 3.934 1.466 3.934 3.5 0 1.375-.801 2.402-1.912 2.805 1.366.366 2.313 1.558 2.313 3.097 0 2.09-1.603 3.592-4.007 3.592h-4.772V61.376zm2.167 5.498h1.985c1.275 0 2.04-.733 2.04-1.814 0-1.1-.765-1.814-2.094-1.814h-1.93v3.628zm0 5.627h2.222c1.312 0 2.168-.715 2.168-1.87 0-1.117-.747-1.906-2.095-1.906h-2.295v3.776zm9.876-6.349l-2.339-.162c-.02-.183-.06-.487-.06-.75 0-2.273 1.693-4.323 4.658-4.323 2.884 0 4.598 1.887 4.598 4.14 0 1.704-.948 3.104-2.521 4.078l-2.541 1.583c-.625.385-1.15.852-1.33 1.501h6.472v2.151h-9.458c.04-2.252.827-4.017 3.106-5.438l2.158-1.36c1.17-.73 1.674-1.521 1.674-2.475 0-1.075-.726-2.05-2.198-2.05-1.533 0-2.28 1.076-2.28 2.436 0 .203.041.446.061.67zm8.54-4.776h4.445c2.477 0 3.935 1.466 3.935 3.5 0 1.375-.802 2.402-1.913 2.805 1.366.366 2.313 1.558 2.313 3.097 0 2.09-1.603 3.592-4.007 3.592h-4.772V61.376zm2.168 5.498h1.986c1.275 0 2.04-.733 2.04-1.814 0-1.1-.765-1.814-2.095-1.814h-1.93v3.628zm0 5.627h2.223c1.311 0 2.167-.715 2.167-1.87 0-1.117-.747-1.906-2.095-1.906h-2.295v3.776zm13.344-2.621c0 1.704.947 2.84 2.386 2.84 1.384 0 2.35-1.154 2.35-2.858 0-1.705-.948-2.768-2.332-2.768s-2.404 1.082-2.404 2.786zm6.776-8.779V72.74c0 .807.072 1.485.09 1.631h-2.021a8.983 8.983 0 0 1-.091-1.154c-.42.751-1.348 1.374-2.605 1.374-2.55 0-4.262-2.016-4.262-4.71 0-2.566 1.73-4.673 4.226-4.673 1.548 0 2.331.714 2.604 1.282v-5.388h2.059zm3.593 7.826h4.353c-.036-1.045-.728-1.98-2.185-1.98-1.33 0-2.095 1.027-2.168 1.98zm4.59 2.328l1.785.568c-.473 1.558-1.876 2.822-4.007 2.822-2.404 0-4.535-1.76-4.535-4.783 0-2.823 2.076-4.692 4.316-4.692 2.733 0 4.335 1.814 4.335 4.637 0 .348-.036.641-.054.678h-6.485c.055 1.356 1.112 2.327 2.423 2.327 1.275 0 1.93-.678 2.222-1.557zm5.36 3.115h-2.094v-8.925h2.022v1.136c.51-.916 1.62-1.393 2.622-1.393 1.166 0 2.186.532 2.66 1.576.692-1.173 1.73-1.576 2.878-1.576 1.603 0 3.133 1.027 3.133 3.39v5.792h-2.04v-5.443c0-1.045-.529-1.833-1.713-1.833-1.11 0-1.84.88-1.84 1.98v5.296h-2.076v-5.443c0-1.026-.51-1.833-1.712-1.833-1.13 0-1.84.843-1.84 1.98v5.296zm17.054-1.63c1.312 0 2.478-.972 2.478-2.842 0-1.85-1.166-2.804-2.478-2.804-1.293 0-2.477.953-2.477 2.804s1.184 2.841 2.477 2.841zm0-7.57c2.66 0 4.609 1.998 4.609 4.728 0 2.75-1.95 4.747-4.609 4.747-2.64 0-4.59-1.998-4.59-4.747 0-2.73 1.95-4.728 4.59-4.728z"
    />
</svg>
