<svg xmlns="http://www.w3.org/2000/svg" viewBox="0 0 179 64">
    <g fill="none" fill-rule="evenodd">
        <path
            fill="#1D1D1B"
            fill-rule="nonzero"
            d="M21.12 57l-.48.33a5 5 0 0 0-.49.37 1.52 1.52 0 0 0-.36.43.7.7 0 0 0-.06.49.38.38 0 0 0 0 .09v.27c-.11.17-.21.34-.3.5a3.22 3.22 0 0 1-.29.44 1.1 1.1 0 0 1-.37.3 1.17 1.17 0 0 1-.54.1 2.35 2.35 0 0 1-.62-.11 3.15 3.15 0 0 1-.58-.25 5.05 5.05 0 0 1-.55-.36l-.53-.42a.1.1 0 0 0 0-.06v-.06V59a.13.13 0 0 1 0-.06 1.81 1.81 0 0 0-.21-.44 2.29 2.29 0 0 0-.32-.37 3.59 3.59 0 0 0-.38-.31l-.42-.26v.08a.3.3 0 0 0 0 .08v.16a4.6 4.6 0 0 0 .63 1.16c.251.35.547.666.88.94a4.5 4.5 0 0 0 1.07.66c.377.165.78.264 1.19.29a2.56 2.56 0 0 0 1.16-.19 2.52 2.52 0 0 0 .94-.7 2.82 2.82 0 0 0 .73-1.04 3.33 3.33 0 0 0 0-1.48l-.1-.52M4.75 36.56l-.13.06-.13.07-.13.07-.12.08c-.22.147-.437.3-.65.46a4.93 4.93 0 0 0-.57.52 4.35 4.35 0 0 0-.5.65 5.93 5.93 0 0 0-.45.87 4.31 4.31 0 0 1 1.19 0c.422.058.835.17 1.23.33.437.178.856.4 1.25.66.442.3.86.635 1.25 1l-1.67-5h-.3l-.15.05-.15.06m1.36-.27l1.64 4.82 3.65.05a15.27 15.27 0 0 0-1.23-2.05 9.72 9.72 0 0 0-1.29-1.39 5.71 5.71 0 0 0-1.37-.94 3.52 3.52 0 0 0-1.37-.36m2.16 6.34a20.11 20.11 0 0 1 1.65 2.27 28.46 28.46 0 0 1 1.56 2.83c.5 1.04.97 2.157 1.41 3.35a47.19 47.19 0 0 1 1.22 3.83 28.54 28.54 0 0 0-.11-3.67c-.053-.667-.123-1.3-.21-1.9-.09-.64-.21-1.28-.33-1.92-.09-.43-.19-.85-.29-1.26-.1-.41-.21-.81-.33-1.2-.12-.39-.24-.77-.36-1.14-.12-.37-.26-.71-.4-1.07l-3.85-.12M0 7.16c.107.987.223 1.987.35 3 .127 1.013.27 2.04.43 3.08.32 2.12.683 4.233 1.09 6.34.28 1.407.57 2.783.87 4.13.3 1.347.633 2.68 1 4 .32 1.253.653 2.503 1 3.75.347 1.247.71 2.427 1.09 3.54a3.19 3.19 0 0 1 .49 0c.34.005.677.063 1 .17a4 4 0 0 1 .5.21c-.393-.927-.77-1.86-1.13-2.8-.767-2-1.47-4-2.11-6a463.031 463.031 0 0 1-1-3.18l-1.13-4.29A88.827 88.827 0 0 1 1.47 15C.89 12.4.4 9.787 0 7.16m32.53 20.58c-.433.073-.86.163-1.28.27l-.62.17-.62.21-.68 6.11a27.43 27.43 0 0 1 4.46-4.04 23.49 23.49 0 0 1 2.4-1.51 22 22 0 0 1 2.48-1.16 8.93 8.93 0 0 0-1.44-.31 9.86 9.86 0 0 0-1.43-.08 14 14 0 0 0-1.5.1c-.553.067-1.103.143-1.65.23h-.11M27.31 37l-8.88 4.42c-.12.493-.22.99-.3 1.49-.08.5-.123 1.017-.13 1.55 0 .52-.06 1 0 1.56a17.4 17.4 0 0 0 .49 3.9c.18.738.41 1.464.69 2.17.285.69.62 1.358 1 2a15 15 0 0 0 1.21 1.8 34.92 34.92 0 0 1 1.8-10.41A33.83 33.83 0 0 1 24.94 41a31.66 31.66 0 0 1 2.37-4"
        />
        <path
            fill="#1D1D1B"
            d="M24.63 0a34.22 34.22 0 0 1 .72 3.43c.19 1.2.33 2.44.44 3.74.11 1.3.21 2.66.21 4.06 0 1.4.09 2.9.11 4.42a42 42 0 0 1-.67 8.77 25.8 25.8 0 0 1-1.92 6 46.7 46.7 0 0 1-2.36 4.29 17.35 17.35 0 0 0-1.86 4v.44l8.4-4c.407-2.507.693-5.027.86-7.56.15-2.29.19-4.43.15-6.42a73.363 73.363 0 0 0-.32-5.41 64.74 64.74 0 0 0-.6-4.51 54.204 54.204 0 0 0-.58-3A57.09 57.09 0 0 0 24.63 0"
            opacity=".7"
        />
        <path
            fill="#1D1D1B"
            d="M59.5 47c-5.73 0-8.31-2.87-8.31-6.59l.29-.29h3.44l.29.29c0 2 1.15 3.15 4.58 3.15 2.58 0 4-.86 4-2.58 0-2-1.15-2.58-5.16-3.15-4.01-.57-7.17-2-7.17-6 0-2.86 2.29-5.44 7.74-5.44S67 29 67 32.41l-.28.29h-3.49l-.29-.29c0-1.72-.86-2.58-4-2.58-2.58 0-3.44.86-3.44 2 0 1.72 1.15 2.29 5.16 2.87 4.01.58 7.16 2.3 7.16 6.3 0 3.15-2.3 6-8.32 6z"
        />
        <path
            fill="#1D1D1B"
            fill-rule="nonzero"
            d="M77.56 47a4.82 4.82 0 0 1-3.73-1.43h-.29v6.59l-.29.29h-3.43l-.29-.29V32.7l.29-.29H73l.29.29.29.86h.29a4.82 4.82 0 0 1 3.73-1.43c3.44 0 6.31 2.87 6.31 7.45S81 47 77.56 47zm-.86-11.44c-2.29 0-3.15 1.72-3.15 4 0 2.28.86 4 3.15 4s3.15-1.73 3.15-4-.86-4-3.15-4zM94.76 35.85h-2c-2.29 0-3.15 1.15-3.15 3.73v6.87l-.29.29h-3.45l-.28-.28V32.7l.29-.29H89l.29.29.29.86h.29s.57-1.15 3.15-1.15h1.71l.29.29v2.87l-.29.28h.03zM105.36 47c-1.15 2.87-2.29 4.58-6.31 4.58h-1.42l-.29-.29v-2.83l.29-.29h1.43c1.43 0 1.72-.29 2-1.15v-.29l-4.58-11.17V32.7l.29-.29h2.57l.29.29 3.44 9.75h.29l3.44-9.75.29-.29h2.58l.29.29v2.87L105.36 47zm18.64-.26h-1.72l-.57-.29-4-4.3h-.29l-1.72 1.72-.29.57v2l-.29.29h-3.44l-.29-.29V27l.29-.29h3.44l.29.29v11.43h.29l5.73-5.73.57-.29h1.72l.29.29v2.87L120.56 39v.29l3.72 4.3v2.87l-.28.28zM138.91 40.72l-.29.29h-8.89l-.29.29a2.59 2.59 0 0 0 2.87 2.29 2.23 2.23 0 0 0 2-.86l.29-.29h3.4l.29.29c-.29 1.72-1.72 4.3-6 4.3-4.87 0-7.17-3.44-7.17-7.45s2.29-7.45 6.87-7.45 6.87 3.44 6.87 7.45v1.15l.05-.01zm-4.3-2.87a2.6 2.6 0 0 0-5.16 0l.29.29h4.58l.29-.29z"
        />
        <path
            fill="#1D1D1B"
            d="M150.08 35.85h-2c-2.29 0-3.15 1.15-3.15 3.73v6.87l-.29.29h-3.44l-.29-.29V32.7l.29-.29h3.15l.29.29.29.86h.29s.57-1.15 3.15-1.15h1.72l.27.29v2.87l-.28.28z"
        />
        <g fill="#959595">
            <path
                fill-rule="nonzero"
                d="M115.24 52.84c2 0 3.19 1.18 3.19 2.82a2.33 2.33 0 0 1-1.55 2.26 2.51 2.51 0 0 1 1.88 2.5 2.94 2.94 0 0 1-3.25 2.89h-3.87V52.84h3.6zm-.24 4.44a1.46 1.46 0 0 0 1.65-1.46c0-.89-.62-1.46-1.7-1.46h-1.57v2.92H115zm.19 4.53c1.06 0 1.76-.58 1.76-1.51a1.51 1.51 0 0 0-1.7-1.54h-1.86v3l1.8.05z"
            />
            <path
                d="M119.7 56.75a5.34 5.34 0 0 1 0-.59 3.41 3.41 0 0 1 3.67-3.39 3.3 3.3 0 0 1 3.58 3.23 3.73 3.73 0 0 1-2 3.2l-2 1.24a2.15 2.15 0 0 0-1 1.18H127v1.69h-7.46a4.68 4.68 0 0 1 2.46-4.25l1.7-1.06a2.27 2.27 0 0 0 1.3-1.95 1.58 1.58 0 0 0-1.73-1.61 1.72 1.72 0 0 0-1.8 1.91v.52l-1.77-.12zM127.87 58.09a5.25 5.25 0 0 1 5.27-5.46 4.56 4.56 0 0 1 4.71 3.4l-1.67.56a2.9 2.9 0 0 0-3-2.29 3.48 3.48 0 0 0-3.46 3.8 3.47 3.47 0 0 0 3.47 3.75 3.13 3.13 0 0 0 3.12-2.3l1.63.53a4.7 4.7 0 0 1-4.74 3.47 5.19 5.19 0 0 1-5.33-5.46z"
            />
            <path
                fill-rule="nonzero"
                d="M149.25 62c-.002.438.022.875.07 1.31h-1.64a7 7 0 0 1-.07-.93 2.37 2.37 0 0 1-2.11 1.11 3.5 3.5 0 0 1-3.5-3.79 3.53 3.53 0 0 1 3.43-3.77 2.19 2.19 0 0 1 2.11 1v-4.31h1.67l.04 9.38zm-3.56 0c1.12 0 1.91-.93 1.91-2.3 0-1.37-.77-2.23-1.89-2.23a2 2 0 0 0-2 2.25c.04 1.35.81 2.28 1.98 2.28zM157.55 61.26a3.24 3.24 0 0 1-3.25 2.27 3.83 3.83 0 0 1-.18-7.64c2.21 0 3.51 1.46 3.51 3.74.02.183.02.367 0 .55h-5.26a1.93 1.93 0 0 0 2 1.88 1.73 1.73 0 0 0 1.8-1.25l1.38.45zm-1.64-2.33a1.61 1.61 0 0 0-1.77-1.6 1.73 1.73 0 0 0-1.76 1.6h3.53z"
            />
            <path
                d="M159 63.32v-7.2h1.64V57a2.45 2.45 0 0 1 2.13-1.12 2.26 2.26 0 0 1 2.16 1.27 2.52 2.52 0 0 1 2.33-1.27 2.47 2.47 0 0 1 2.54 2.73v4.67h-1.65v-4.35a1.31 1.31 0 0 0-1.39-1.48 1.5 1.5 0 0 0-1.49 1.6v4.27h-1.68v-4.39a1.31 1.31 0 0 0-1.39-1.48 1.47 1.47 0 0 0-1.49 1.6v4.27H159z"
            />
            <path
                fill-rule="nonzero"
                d="M178.42 59.71a3.73 3.73 0 1 1-3.74-3.81 3.66 3.66 0 0 1 3.74 3.81zm-1.73 0a2 2 0 1 0-4 0 2 2 0 0 0 4 0z"
            />
        </g>
    </g>
</svg>
